# xmcd
# 
# Track frame offsets:
#     150
#     12847
#     25127
#     34495
#     41935
#     51197
#     56547
#     75622
#     79515
#     88665
#     106537
#     113687
#     156187
#     165280
#     180810
#     187545
#     205242
#     210270
#     227397
#     237812
#     258022
#     267995
#     275852
# 
# Disc length: 3881
# 
# Revision: 2
# Processed by: cddbd v1.5.2PL0 Copyright (c) Steve Scherf et al.
# Submitted via: fre:ac v1.0.31
# 
DISCID=110f2717
DTITLE=Janis Joplin - Love Janis(The Songs,The Letters,The Soul of Janis Joplin)
DYEAR=0
DGENRE=Rock/Pop
TTITLE0=What Good Can Drinkin' Do
TTITLE1=(I Bring The News)
TTITLE2=Down On Me
TTITLE3=(I'm Somebody Important)
TTITLE4=Women Is Losers
TTITLE5=(Our First Record Is Finally Out)
TTITLE6=Piece Of My Heart
TTITLE7=(I'm Sorry,Sorry)
TTITLE8=(A Happening)
TTITLE9=Summertime
TTITLE10=(He's A Beatle, Mother)
TTITLE11=Ball And Chain
TTITLE12=(I May Be A Star Someday)
TTITLE13=A Woman Left Lonely
TTITLE14=(Twenty-Five)
TTITLE15=Try(just a little bit harder)
TTITLE16=(Did I Tell You About My Reviews?)
TTITLE17=Little Girl Blue)
TTITLE18=(Twenty-Seven)
TTITLE19=Me And Bobby McGee
TTITLE20=Mercedes Benz
TTITLE21=The Last Letter(Really Rushin' Through)
TTITLE22=Get It While You Can
EXTD=
EXTT0=
EXTT1=
EXTT2=
EXTT3=
EXTT4=
EXTT5=
EXTT6=
EXTT7=
EXTT8=
EXTT9=
EXTT10=
EXTT11=
EXTT12=
EXTT13=
EXTT14=
EXTT15=
EXTT16=
EXTT17=
EXTT18=
EXTT19=
EXTT20=
EXTT21=
EXTT22=
PLAYORDER=
